<svg xmlns="http://www.w3.org/2000/svg" xmlns:xlink="http://www.w3.org/1999/xlink" width="64" zoomAndPan="magnify" viewBox="0 0 48 48" height="64" preserveAspectRatio="xMidYMid meet" version="1.0"><defs><g/><clipPath id="2385fedf99"><path d="M 5 0 L 46 0 L 46 47.019531 L 5 47.019531 Z M 5 0 " clip-rule="nonzero"/></clipPath><clipPath id="4e44071006"><path d="M 0.191406 7 L 10 7 L 10 45 L 0.191406 45 Z M 0.191406 7 " clip-rule="nonzero"/></clipPath><clipPath id="aff67fafb4"><rect x="0" width="41" y="0" height="48"/></clipPath><clipPath id="26c9dcc999"><path d="M 9 2.234375 L 11 2.234375 L 11 6 L 9 6 Z M 9 2.234375 " clip-rule="nonzero"/></clipPath><clipPath id="f813097a44"><path d="M 5.191406 7 L 9 7 L 9 7.378906 L 5.191406 7.378906 Z M 5.191406 7 " clip-rule="nonzero"/></clipPath><clipPath id="0382a6d703"><path d="M 11 7 L 14.742188 7 L 14.742188 7.378906 L 11 7.378906 Z M 11 7 " clip-rule="nonzero"/></clipPath></defs><g clip-path="url(#2385fedf99)"><g transform="matrix(1, 0, 0, 1, 5, 0.000000000000005041)"><g clip-path="url(#aff67fafb4)"><g clip-path="url(#4e44071006)"><g fill="#3c210e" fill-opacity="1"><g transform="translate(0.191836, 44.479498)"><g><path d="M 0.6875 0 L 0.6875 -0.546875 L 2.828125 -0.546875 L 2.828125 -35.953125 L 0.6875 -35.953125 L 0.6875 -36.5 L 9.125 -36.5 L 9.125 -35.953125 L 6.984375 -35.953125 L 6.984375 -0.546875 L 9.125 -0.546875 L 9.125 0 Z M 0.6875 0 "/></g></g></g></g><g fill="#3c210e" fill-opacity="1"><g transform="translate(9.999167, 44.479498)"><g><path d="M 0.6875 0 L 0.6875 -0.5 L 3.703125 -0.5 L 15.234375 -36.5 L 15.828125 -36.5 L 27.28125 -0.546875 L 29.46875 -0.546875 L 29.46875 0 L 21.03125 0 L 21.03125 -0.546875 L 23.3125 -0.546875 L 18.9375 -14.09375 L 8.671875 -14.09375 L 4.328125 -0.5 L 7.25 -0.5 L 7.25 0 Z M 8.84375 -14.640625 L 18.75 -14.640625 L 13.78125 -30.0625 Z M 8.84375 -14.640625 "/></g></g></g></g></g></g><g clip-path="url(#26c9dcc999)"><path fill="#000000" d="M 9.980469 5.707031 L 10.054688 2.234375 L 10.125 5.707031 Z M 9.980469 5.707031 " fill-opacity="1" fill-rule="nonzero"/></g><path fill="#000000" d="M 9.625 5.773438 L 9.023438 3.238281 L 9.769531 5.734375 Z M 9.625 5.773438 " fill-opacity="1" fill-rule="nonzero"/><path fill="#000000" d="M 8.820312 6.460938 L 6.601562 5.097656 L 8.894531 6.332031 Z M 8.820312 6.460938 " fill-opacity="1" fill-rule="nonzero"/><path fill="#000000" d="M 11.367188 6.65625 L 13.902344 6.054688 L 11.40625 6.800781 Z M 11.367188 6.65625 " fill-opacity="1" fill-rule="nonzero"/><path fill="#000000" d="M 10.679688 5.855469 L 12.046875 3.636719 L 10.808594 5.929688 Z M 10.679688 5.855469 " fill-opacity="1" fill-rule="nonzero"/><path fill="#000000" d="M 9.316406 5.917969 L 8.441406 4.292969 L 9.40625 5.867188 Z M 9.316406 5.917969 " fill-opacity="1" fill-rule="nonzero"/><path fill="#000000" d="M 9.027344 6.160156 L 6.621094 3.65625 L 9.128906 6.058594 Z M 9.027344 6.160156 " fill-opacity="1" fill-rule="nonzero"/><path fill="#000000" d="M 8.707031 6.78125 L 6.9375 6.253906 L 8.734375 6.679688 Z M 8.707031 6.78125 " fill-opacity="1" fill-rule="nonzero"/><g clip-path="url(#f813097a44)"><path fill="#000000" d="M 8.671875 7.160156 L 5.199219 7.085938 L 8.671875 7.015625 Z M 8.671875 7.160156 " fill-opacity="1" fill-rule="nonzero"/></g><g clip-path="url(#0382a6d703)"><path fill="#000000" d="M 11.433594 7.015625 L 14.90625 7.085938 L 11.433594 7.160156 Z M 11.433594 7.015625 " fill-opacity="1" fill-rule="nonzero"/></g><path fill="#000000" d="M 11.222656 6.351562 L 12.847656 5.476562 L 11.277344 6.441406 Z M 11.222656 6.351562 " fill-opacity="1" fill-rule="nonzero"/><path fill="#000000" d="M 10.980469 6.058594 L 13.484375 3.65625 L 11.082031 6.160156 Z M 10.980469 6.058594 " fill-opacity="1" fill-rule="nonzero"/><path fill="#000000" d="M 10.359375 5.738281 L 10.886719 3.972656 L 10.460938 5.765625 Z M 10.359375 5.738281 " fill-opacity="1" fill-rule="nonzero"/></svg>