<svg xmlns="http://www.w3.org/2000/svg" xmlns:xlink="http://www.w3.org/1999/xlink" width="360" zoomAndPan="magnify" viewBox="0 0 270 95.999999" height="128" preserveAspectRatio="xMidYMid meet" version="1.0"><defs><g/><clipPath id="581c6f0ae2"><rect x="0" width="266" y="0" height="81"/></clipPath></defs><g transform="matrix(1, 0, 0, 1, 4, 7)"><g clip-path="url(#581c6f0ae2)"><g fill="#3c210e" fill-opacity="1"><g transform="translate(1.478887, 51.149488)"><g><path d="M 12.625 -26.265625 C 12.625 -25.578125 12.804688 -24.972656 13.171875 -24.453125 C 13.535156 -23.941406 13.863281 -23.582031 14.15625 -23.375 C 14.757812 -22.976562 15.535156 -22.546875 16.484375 -22.078125 C 16.992188 -21.691406 17.097656 -21.457031 16.796875 -21.375 C 16.671875 -21.375 16.519531 -21.394531 16.34375 -21.4375 C 15.320312 -21.65625 14.226562 -22.273438 13.0625 -23.296875 C 11.90625 -24.328125 11.304688 -25.507812 11.265625 -26.84375 C 11.140625 -27.3125 11.078125 -27.71875 11.078125 -28.0625 C 11.078125 -29.90625 11.847656 -31.515625 13.390625 -32.890625 C 16.265625 -35.335938 20.835938 -36.5625 27.109375 -36.5625 C 27.109375 -36.738281 27.171875 -36.953125 27.296875 -37.203125 C 27.335938 -37.503906 27.664062 -37.71875 28.28125 -37.84375 C 28.90625 -37.976562 29.5 -37.988281 30.0625 -37.875 C 30.625 -37.769531 30.878906 -37.546875 30.828125 -37.203125 C 30.660156 -36.859375 30.554688 -36.582031 30.515625 -36.375 C 33.265625 -36.195312 35.5625 -35.640625 37.40625 -34.703125 C 38 -34.398438 38.4375 -34.03125 38.71875 -33.59375 C 39 -33.164062 39.140625 -32.867188 39.140625 -32.703125 C 39.140625 -32.316406 38.351562 -32.390625 36.78125 -32.921875 C 35.21875 -33.460938 32.828125 -33.734375 29.609375 -33.734375 C 29.398438 -32.828125 28.660156 -30.550781 27.390625 -26.90625 C 26.128906 -23.257812 25.328125 -20.992188 24.984375 -20.109375 C 24.640625 -19.234375 24.164062 -18.007812 23.5625 -16.4375 C 22.957031 -14.875 22.421875 -13.597656 21.953125 -12.609375 C 21.484375 -11.628906 20.945312 -10.515625 20.34375 -9.265625 C 19.3125 -7.160156 18.085938 -5.1875 16.671875 -3.34375 C 15.597656 -2.101562 14.785156 -1.269531 14.234375 -0.84375 C 14.960938 -0.84375 16.375 -0.84375 18.46875 -0.84375 C 20.570312 -0.84375 22.414062 -0.894531 24 -1 C 25.59375 -1.101562 26.460938 -1.085938 26.609375 -0.953125 C 26.765625 -0.828125 26.78125 -0.679688 26.65625 -0.515625 C 26.394531 -0.0859375 26.050781 0.242188 25.625 0.484375 C 25.195312 0.722656 22.039062 0.925781 16.15625 1.09375 C 10.28125 1.269531 6.613281 1.359375 5.15625 1.359375 C 3.695312 1.359375 2.644531 1.359375 2 1.359375 C 1.007812 1.304688 0.515625 0.914062 0.515625 0.1875 C 0.515625 -0.195312 0.644531 -0.734375 0.90625 -1.421875 C 1.207031 -2.109375 1.796875 -2.546875 2.671875 -2.734375 C 3.546875 -2.929688 4.328125 -2.75 5.015625 -2.1875 C 6.179688 -1.238281 7.320312 -0.765625 8.4375 -0.765625 C 9.550781 -0.765625 10.695312 -0.976562 11.875 -1.40625 C 13.050781 -1.84375 14.242188 -2.832031 15.453125 -4.375 C 18.929688 -9.007812 22.578125 -18.773438 26.390625 -33.671875 C 22.441406 -33.328125 19.160156 -32.519531 16.546875 -31.25 C 13.929688 -29.988281 12.625 -28.328125 12.625 -26.265625 Z M 34.765625 -47.375 L 34.765625 -46.03125 C 34.765625 -45.601562 34.441406 -44.90625 33.796875 -43.9375 C 33.148438 -42.96875 32.632812 -42.484375 32.25 -42.484375 C 30.144531 -42.484375 29.09375 -43.019531 29.09375 -44.09375 C 29.09375 -44.226562 29.519531 -44.691406 30.375 -45.484375 C 31.238281 -46.273438 31.84375 -46.800781 32.1875 -47.0625 C 33.175781 -47.789062 33.851562 -48.15625 34.21875 -48.15625 C 34.582031 -48.15625 34.765625 -47.894531 34.765625 -47.375 Z M 34.765625 -47.375 "/></g></g></g><g fill="#3c210e" fill-opacity="1"><g transform="translate(21.563234, 51.149488)"><g><path d="M 11.078125 1.609375 C 8.890625 1.609375 7.796875 0.289062 7.796875 -2.34375 C 7.796875 -4.988281 9.679688 -8.242188 13.453125 -12.109375 C 13.753906 -12.398438 13.96875 -12.632812 14.09375 -12.8125 L 14.546875 -13.453125 C 15.148438 -14.265625 15.429688 -14.78125 15.390625 -15 L 15.1875 -15.578125 C 15.019531 -16.085938 14.3125 -16.460938 13.0625 -16.703125 C 11.820312 -16.941406 10.816406 -17.0625 10.046875 -17.0625 C 6.179688 -11.613281 3.945312 -8.5 3.34375 -7.71875 C 2.75 -6.945312 2.34375 -6.625 2.125 -6.75 C 1.90625 -6.882812 1.796875 -7.035156 1.796875 -7.203125 C 1.796875 -7.378906 1.925781 -7.640625 2.1875 -7.984375 C 4.507812 -10.816406 6.503906 -13.84375 8.171875 -17.0625 C 7.660156 -17.144531 7.273438 -17.328125 7.015625 -17.609375 C 6.753906 -17.890625 6.734375 -18.359375 6.953125 -19.015625 C 7.171875 -19.679688 7.828125 -20.570312 8.921875 -21.6875 C 10.015625 -22.8125 10.96875 -23.566406 11.78125 -23.953125 C 12.59375 -24.335938 13.101562 -24.570312 13.3125 -24.65625 C 13.53125 -24.738281 13.769531 -24.78125 14.03125 -24.78125 C 14.550781 -24.78125 14.378906 -24.007812 13.515625 -22.46875 L 11.015625 -18.46875 C 12.941406 -18.34375 14.59375 -18.28125 15.96875 -18.28125 L 18.21875 -18.34375 C 18.945312 -18.34375 19.484375 -18.242188 19.828125 -18.046875 C 20.171875 -17.859375 20.253906 -17.53125 20.078125 -17.0625 C 19.785156 -16.25 19.035156 -15.15625 17.828125 -13.78125 C 15.253906 -10.769531 13.320312 -7.570312 12.03125 -4.1875 C 11.738281 -3.375 11.59375 -2.664062 11.59375 -2.0625 C 11.59375 -0.8125 12.039062 -0.1875 12.9375 -0.1875 C 13.238281 -0.1875 13.804688 -0.421875 14.640625 -0.890625 C 15.484375 -1.367188 16.890625 -2.5 18.859375 -4.28125 C 20.835938 -6.0625 22.425781 -7.8125 23.625 -9.53125 C 23.800781 -9.738281 24.003906 -9.789062 24.234375 -9.6875 C 24.472656 -9.582031 24.59375 -9.472656 24.59375 -9.359375 C 24.59375 -9.253906 24.550781 -9.140625 24.46875 -9.015625 C 23.820312 -7.859375 22.660156 -6.375 20.984375 -4.5625 C 19.304688 -2.757812 17.675781 -1.300781 16.09375 -0.1875 C 14.550781 1.007812 12.878906 1.609375 11.078125 1.609375 Z M 11.078125 1.609375 "/></g></g></g><g fill="#3c210e" fill-opacity="1"><g transform="translate(41.840689, 51.149488)"><g><path d="M 17.453125 -18.734375 C 19.765625 -18.734375 20.921875 -17.617188 20.921875 -15.390625 C 20.921875 -14.222656 20.597656 -13.273438 19.953125 -12.546875 C 18.878906 -10.960938 17.140625 -9.578125 14.734375 -8.390625 C 12.335938 -7.210938 10.300781 -6.5625 8.625 -6.4375 C 8.019531 -6.394531 7.695312 -6.566406 7.65625 -6.953125 C 7.613281 -7.117188 7.664062 -7.222656 7.8125 -7.265625 C 7.96875 -7.316406 8.085938 -7.34375 8.171875 -7.34375 C 9.160156 -7.425781 10.425781 -7.894531 11.96875 -8.75 C 14.84375 -10.300781 16.945312 -11.890625 18.28125 -13.515625 C 18.84375 -14.285156 19.125 -15.023438 19.125 -15.734375 C 19.125 -16.441406 18.78125 -16.796875 18.09375 -16.796875 C 17.53125 -16.796875 16.78125 -16.5625 15.84375 -16.09375 C 13.820312 -15.144531 11.691406 -13.5 9.453125 -11.15625 C 7.222656 -8.820312 5.765625 -6.539062 5.078125 -4.3125 C 4.867188 -3.625 4.765625 -2.945312 4.765625 -2.28125 C 4.765625 -1.613281 5.039062 -0.976562 5.59375 -0.375 C 6.15625 0.21875 7.015625 0.515625 8.171875 0.515625 C 9.460938 0.515625 10.945312 0.171875 12.625 -0.515625 C 17.46875 -2.484375 21.195312 -5.46875 23.8125 -9.46875 C 24.070312 -9.8125 24.3125 -9.875 24.53125 -9.65625 C 24.695312 -9.570312 24.78125 -9.460938 24.78125 -9.328125 C 24.78125 -9.203125 24.71875 -9.054688 24.59375 -8.890625 C 23.300781 -6.742188 21.671875 -4.832031 19.703125 -3.15625 C 15.878906 0.101562 12.164062 1.734375 8.5625 1.734375 C 5.46875 1.734375 3.300781 0.8125 2.0625 -1.03125 C 1.59375 -1.757812 1.359375 -2.640625 1.359375 -3.671875 C 1.359375 -4.703125 1.632812 -5.925781 2.1875 -7.34375 C 3.257812 -9.789062 5.554688 -12.300781 9.078125 -14.875 C 12.597656 -17.445312 15.390625 -18.734375 17.453125 -18.734375 Z M 17.453125 -18.734375 "/></g></g></g><g fill="#3c210e" fill-opacity="1"><g transform="translate(62.375642, 51.149488)"><g><path d="M 11.015625 -16.734375 C 11.015625 -16.429688 10.773438 -15.773438 10.296875 -14.765625 C 9.828125 -13.765625 8.476562 -10.300781 6.25 -4.375 C 7.789062 -6.257812 9.742188 -8.445312 12.109375 -10.9375 C 16.867188 -15.914062 20.148438 -18.40625 21.953125 -18.40625 C 22.335938 -18.40625 22.710938 -18.296875 23.078125 -18.078125 C 23.441406 -17.867188 23.625 -17.390625 23.625 -16.640625 C 23.625 -15.890625 23.382812 -15.050781 22.90625 -14.125 C 22.4375 -13.207031 21.898438 -12.082031 21.296875 -10.75 C 20.703125 -9.414062 20.296875 -8.578125 20.078125 -8.234375 C 23.691406 -11.492188 26.421875 -13.476562 28.265625 -14.1875 C 30.109375 -14.894531 31.328125 -15.25 31.921875 -15.25 C 32.523438 -15.25 32.828125 -15.035156 32.828125 -14.609375 C 32.828125 -14.359375 32.503906 -13.738281 31.859375 -12.75 C 31.222656 -11.757812 30.515625 -10.296875 29.734375 -8.359375 C 28.960938 -6.429688 28.535156 -5.082031 28.453125 -4.3125 C 28.367188 -3.539062 28.328125 -2.851562 28.328125 -2.25 C 28.328125 -1.65625 28.5 -1.160156 28.84375 -0.765625 C 29.488281 -0.0859375 30.367188 -0.046875 31.484375 -0.640625 C 32.597656 -1.242188 34.148438 -2.445312 36.140625 -4.25 C 38.140625 -6.050781 39.738281 -7.8125 40.9375 -9.53125 C 41.113281 -9.738281 41.316406 -9.789062 41.546875 -9.6875 C 41.785156 -9.582031 41.90625 -9.472656 41.90625 -9.359375 C 41.90625 -9.253906 41.863281 -9.140625 41.78125 -9.015625 C 41.132812 -7.859375 39.972656 -6.378906 38.296875 -4.578125 C 35.554688 -1.609375 33.265625 0.21875 31.421875 0.90625 C 29.398438 1.59375 27.9375 1.675781 27.03125 1.15625 C 26.132812 0.644531 25.578125 0.0664062 25.359375 -0.578125 C 25.148438 -1.222656 25.046875 -1.867188 25.046875 -2.515625 C 25.046875 -4.523438 25.441406 -6.539062 26.234375 -8.5625 C 27.023438 -10.582031 27.65625 -11.957031 28.125 -12.6875 C 26.5 -12 25.109375 -11.140625 23.953125 -10.109375 C 22.191406 -8.566406 20.773438 -7.210938 19.703125 -6.046875 L 18.40625 -4.640625 C 18.019531 -3.691406 17.34375 -3.148438 16.375 -3.015625 C 15.414062 -2.890625 14.957031 -3.210938 15 -3.984375 C 15.082031 -4.804688 15.875 -6.632812 17.375 -9.46875 C 18.882812 -12.300781 19.640625 -13.875 19.640625 -14.1875 C 19.640625 -14.507812 19.46875 -14.671875 19.125 -14.671875 C 18.34375 -14.671875 16.945312 -13.789062 14.9375 -12.03125 C 13.601562 -10.789062 11.640625 -8.441406 9.046875 -4.984375 C 6.453125 -1.535156 4.984375 0.296875 4.640625 0.515625 C 3.085938 1.285156 2.117188 1.671875 1.734375 1.671875 C 1.347656 1.671875 1.15625 1.601562 1.15625 1.46875 C 1.15625 1.34375 1.21875 1.148438 1.34375 0.890625 C 1.476562 0.640625 2.789062 -3.085938 5.28125 -10.296875 C 4.332031 -8.835938 3.472656 -7.722656 2.703125 -6.953125 C 2.359375 -6.566406 2.1875 -6.640625 2.1875 -7.171875 C 2.1875 -7.710938 2.335938 -8.175781 2.640625 -8.5625 C 4.566406 -11.09375 5.984375 -13.238281 6.890625 -15 C 7.148438 -16.5 7.664062 -17.378906 8.4375 -17.640625 C 8.90625 -17.804688 9.453125 -17.800781 10.078125 -17.625 C 10.703125 -17.457031 11.015625 -17.160156 11.015625 -16.734375 Z M 11.015625 -16.734375 "/></g></g></g><g fill="#3c210e" fill-opacity="1"><g transform="translate(99.969411, 51.149488)"><g/></g></g><g fill="#3c210e" fill-opacity="1"><g transform="translate(114.067068, 51.149488)"><g><path d="M 44.875 1.609375 C 43.539062 1.609375 42.570312 1.019531 41.96875 -0.15625 C 41.375 -1.34375 41.078125 -2.847656 41.078125 -4.671875 C 41.078125 -6.492188 41.460938 -8.992188 42.234375 -12.171875 C 40.734375 -12.296875 38.175781 -12.59375 34.5625 -13.0625 C 28.601562 -5.6875 23.648438 -0.5625 19.703125 2.3125 C 16.304688 4.84375 12.785156 6.109375 9.140625 6.109375 C 6.828125 6.109375 4.84375 5.53125 3.1875 4.375 C 1.53125 3.21875 0.703125 1.503906 0.703125 -0.765625 C 0.703125 -1.203125 0.8125 -1.601562 1.03125 -1.96875 C 1.25 -2.332031 1.460938 -2.425781 1.671875 -2.25 C 1.890625 -2.082031 2 -1.585938 2 -0.765625 C 2 0.691406 2.566406 1.785156 3.703125 2.515625 C 4.835938 3.242188 6.222656 3.609375 7.859375 3.609375 C 11.367188 3.609375 14.832031 2.457031 18.25 0.15625 C 21.664062 -2.132812 26.3125 -6.628906 32.1875 -13.328125 C 25.875 -14.097656 21.710938 -14.484375 19.703125 -14.484375 C 14.242188 -14.484375 10.875 -12.703125 9.59375 -9.140625 C 9.414062 -8.671875 9.328125 -8.226562 9.328125 -7.8125 C 9.328125 -7.40625 9.410156 -7.039062 9.578125 -6.71875 C 9.753906 -6.40625 9.789062 -6.148438 9.6875 -5.953125 C 9.582031 -5.765625 9.398438 -5.679688 9.140625 -5.703125 C 8.878906 -5.722656 8.664062 -5.859375 8.5 -6.109375 C 8.03125 -6.929688 7.796875 -7.726562 7.796875 -8.5 C 7.796875 -11.15625 8.273438 -13.113281 9.234375 -14.375 C 10.203125 -15.644531 11.332031 -16.453125 12.625 -16.796875 C 14.164062 -17.234375 15.960938 -17.453125 18.015625 -17.453125 C 20.078125 -17.453125 25.273438 -16.632812 33.609375 -15 C 35.921875 -17.65625 39.4375 -21.929688 44.15625 -27.828125 C 48.882812 -33.734375 51.25 -36.734375 51.25 -36.828125 L 51.3125 -36.828125 C 51.351562 -36.867188 51.457031 -36.929688 51.625 -37.015625 C 52.65625 -37.617188 53.769531 -37.921875 54.96875 -37.921875 C 55.40625 -37.921875 55.625 -37.703125 55.625 -37.265625 C 55.625 -37.222656 55.597656 -37.171875 55.546875 -37.109375 C 55.503906 -37.046875 55.460938 -36.957031 55.421875 -36.84375 C 55.378906 -36.738281 55.335938 -36.644531 55.296875 -36.5625 C 51.179688 -29.738281 47.984375 -22.054688 45.703125 -13.515625 L 45.515625 -13.0625 L 47.125 -13 C 47.46875 -12.957031 48.078125 -12.9375 48.953125 -12.9375 C 49.835938 -12.9375 50.769531 -13.140625 51.75 -13.546875 C 52.738281 -13.953125 53.375 -14.390625 53.65625 -14.859375 C 53.9375 -15.335938 54.179688 -15.445312 54.390625 -15.1875 C 54.609375 -14.9375 54.632812 -14.660156 54.46875 -14.359375 C 53.988281 -13.492188 53.148438 -12.867188 51.953125 -12.484375 C 50.921875 -12.054688 49.898438 -11.84375 48.890625 -11.84375 C 47.878906 -11.84375 47.222656 -11.84375 46.921875 -11.84375 L 45.1875 -11.90625 C 44.375 -8.175781 43.96875 -5.203125 43.96875 -2.984375 C 43.96875 -0.773438 44.566406 0.328125 45.765625 0.328125 C 46.929688 0.328125 48.734375 -0.59375 51.171875 -2.4375 C 53.617188 -4.289062 55.914062 -6.675781 58.0625 -9.59375 C 58.195312 -9.757812 58.367188 -9.800781 58.578125 -9.71875 C 58.796875 -9.632812 58.90625 -9.523438 58.90625 -9.390625 C 58.90625 -9.265625 58.867188 -9.101562 58.796875 -8.90625 C 58.734375 -8.71875 58.40625 -8.238281 57.8125 -7.46875 C 56.007812 -5.0625 53.796875 -2.785156 51.171875 -0.640625 C 49.285156 0.859375 47.1875 1.609375 44.875 1.609375 Z M 48.40625 -30.765625 C 48.445312 -30.859375 48.5 -30.976562 48.5625 -31.125 C 48.632812 -31.269531 48.691406 -31.390625 48.734375 -31.484375 C 43.367188 -24.140625 39.054688 -18.472656 35.796875 -14.484375 L 42.546875 -13.390625 C 43.753906 -18.066406 45.707031 -23.859375 48.40625 -30.765625 Z M 48.40625 -30.765625 "/></g></g></g><g fill="#3c210e" fill-opacity="1"><g transform="translate(168.719652, 51.149488)"><g><path d="M 0.90625 24.53125 C 0.5625 24.53125 0.128906 24.460938 -0.390625 24.328125 C -2.578125 23.773438 -3.671875 22.628906 -3.671875 20.890625 C -3.671875 19.148438 -2.539062 16.96875 -0.28125 14.34375 C 1.96875 11.726562 6.71875 8.019531 13.96875 3.21875 C 18 -5.019531 20.550781 -10.789062 21.625 -14.09375 C 21.113281 -13.5 20.101562 -12.203125 18.59375 -10.203125 C 17.09375 -8.203125 15.765625 -6.503906 14.609375 -5.109375 C 13.453125 -3.722656 12.054688 -2.40625 10.421875 -1.15625 C 8.796875 0.0820312 7.296875 0.703125 5.921875 0.703125 C 4.546875 0.703125 3.484375 0.394531 2.734375 -0.21875 C 1.984375 -0.84375 1.5625 -1.5 1.46875 -2.1875 C 1.382812 -2.875 1.34375 -3.453125 1.34375 -3.921875 C 1.34375 -5.515625 1.773438 -7.101562 2.640625 -8.6875 C 3.921875 -11.3125 5.660156 -13.566406 7.859375 -15.453125 C 8.671875 -16.222656 9.382812 -16.609375 10 -16.609375 C 10.625 -16.609375 11.195312 -16.414062 11.71875 -16.03125 C 12.269531 -15.425781 12.441406 -14.910156 12.234375 -14.484375 C 10.597656 -13.535156 8.726562 -11.710938 6.625 -9.015625 C 5.507812 -7.554688 4.738281 -5.707031 4.3125 -3.46875 C 4.269531 -3.175781 4.25 -2.800781 4.25 -2.34375 C 4.25 -1.894531 4.429688 -1.53125 4.796875 -1.25 C 5.160156 -0.976562 5.535156 -0.84375 5.921875 -0.84375 C 7.253906 -0.84375 8.648438 -1.546875 10.109375 -2.953125 C 11.566406 -4.367188 12.957031 -5.859375 14.28125 -7.421875 C 15.613281 -8.992188 17.128906 -10.875 18.828125 -13.0625 C 20.523438 -15.25 21.640625 -16.6875 22.171875 -17.375 C 22.710938 -18.0625 23.257812 -18.40625 23.8125 -18.40625 C 24.5 -18.40625 25.207031 -18.210938 25.9375 -17.828125 C 26.664062 -17.441406 26.976562 -17.140625 26.875 -16.921875 C 26.769531 -16.710938 25.675781 -14.28125 23.59375 -9.625 C 21.507812 -4.96875 19.992188 -1.628906 19.046875 0.390625 C 20.078125 -0.171875 21.828125 -1.488281 24.296875 -3.5625 C 26.765625 -5.644531 28.859375 -7.757812 30.578125 -9.90625 C 31.003906 -10.425781 31.28125 -10.472656 31.40625 -10.046875 C 31.457031 -9.953125 31.484375 -9.804688 31.484375 -9.609375 C 31.484375 -9.421875 31.351562 -9.15625 31.09375 -8.8125 C 29.757812 -7.0625 27.632812 -4.851562 24.71875 -2.1875 C 21.800781 0.46875 19.484375 2.269531 17.765625 3.21875 C 14.117188 10.726562 11.671875 15.445312 10.421875 17.375 C 7.203125 22.144531 4.03125 24.53125 0.90625 24.53125 Z M 12.75 5.671875 C 7.59375 9.523438 3.910156 12.566406 1.703125 14.796875 C -0.503906 17.035156 -1.609375 18.957031 -1.609375 20.5625 C -1.609375 22.175781 -1.050781 22.984375 0.0625 22.984375 C 0.914062 22.984375 1.898438 22.539062 3.015625 21.65625 C 4.140625 20.78125 5.210938 19.613281 6.234375 18.15625 C 7.265625 16.695312 8.046875 15.441406 8.578125 14.390625 C 9.117188 13.335938 9.863281 11.789062 10.8125 9.75 C 11.757812 7.707031 12.40625 6.347656 12.75 5.671875 Z M 12.75 5.671875 "/></g></g></g><g fill="#3c210e" fill-opacity="1"><g transform="translate(195.498777, 51.149488)"><g><path d="M 5.4375 -11.75 C 7.34375 -13.445312 9.328125 -14.894531 11.390625 -16.09375 C 13.453125 -17.289062 15.082031 -18.039062 16.28125 -18.34375 C 17.488281 -18.644531 18.671875 -18.796875 19.828125 -18.796875 C 20.984375 -18.796875 22.078125 -18.410156 23.109375 -17.640625 C 28.992188 -31.285156 34.617188 -38.109375 39.984375 -38.109375 C 41.785156 -38.109375 43.003906 -37.59375 43.640625 -36.5625 C 43.941406 -36.050781 44.09375 -35.601562 44.09375 -35.21875 C 44.09375 -34.144531 43.628906 -32.78125 42.703125 -31.125 C 41.785156 -29.46875 40.359375 -27.648438 38.421875 -25.671875 C 36.492188 -23.703125 33.726562 -21.269531 30.125 -18.375 C 26.519531 -15.476562 24.523438 -13.859375 24.140625 -13.515625 C 22.765625 -10.335938 21.691406 -7.269531 20.921875 -4.3125 C 20.148438 -1.351562 19.765625 0.851562 19.765625 2.3125 C 19.765625 3.769531 20.019531 4.929688 20.53125 5.796875 C 20.789062 6.347656 21.175781 6.675781 21.6875 6.78125 C 22.207031 6.894531 22.648438 6.832031 23.015625 6.59375 C 23.378906 6.363281 23.65625 6.160156 23.84375 5.984375 C 24.039062 5.816406 24.28125 5.65625 24.5625 5.5 C 24.84375 5.351562 25.046875 5.320312 25.171875 5.40625 C 25.296875 5.488281 25.273438 5.722656 25.109375 6.109375 C 24.765625 6.546875 24.441406 6.910156 24.140625 7.203125 C 23.453125 7.679688 22.644531 7.921875 21.71875 7.921875 C 20.800781 7.921875 20.191406 7.898438 19.890625 7.859375 C 17.828125 7.515625 16.796875 6.007812 16.796875 3.34375 C 16.796875 0.769531 17.140625 -1.609375 17.828125 -3.796875 C 18.773438 -6.796875 19.632812 -9.285156 20.40625 -11.265625 C 13.539062 -3.285156 8.671875 0.703125 5.796875 0.703125 C 5.109375 0.703125 4.363281 0.5 3.5625 0.09375 C 2.769531 -0.3125 2.09375 -0.890625 1.53125 -1.640625 C 0.976562 -2.390625 0.703125 -3.191406 0.703125 -4.046875 C 0.703125 -4.910156 0.894531 -5.726562 1.28125 -6.5 C 2.144531 -8.300781 3.53125 -10.050781 5.4375 -11.75 Z M 22.59375 -16.609375 C 22.082031 -16.867188 21.179688 -17 19.890625 -17 C 18.597656 -17 16.929688 -16.472656 14.890625 -15.421875 C 12.859375 -14.367188 10.941406 -13.046875 9.140625 -11.453125 C 7.640625 -10.035156 6.316406 -8.4375 5.171875 -6.65625 C 4.035156 -4.875 3.46875 -3.578125 3.46875 -2.765625 C 3.46875 -1.179688 3.921875 -0.390625 4.828125 -0.390625 C 5.734375 -0.390625 7.109375 -1.117188 8.953125 -2.578125 C 13.710938 -6.484375 17.957031 -10.429688 21.6875 -14.421875 Z M 41.453125 -32.828125 C 42.015625 -33.859375 42.296875 -34.726562 42.296875 -35.4375 C 42.296875 -36.144531 41.984375 -36.5 41.359375 -36.5 C 40.734375 -36.5 39.90625 -36.113281 38.875 -35.34375 C 34.15625 -31.738281 29.890625 -25.707031 26.078125 -17.25 C 28.859375 -19.050781 31.769531 -21.453125 34.8125 -24.453125 C 37.863281 -27.460938 40.078125 -30.253906 41.453125 -32.828125 Z M 41.453125 -32.828125 "/></g></g></g><g fill="#3c210e" fill-opacity="1"><g transform="translate(219.638617, 51.149488)"><g><path d="M 18.734375 -9.015625 C 18.085938 -7.859375 16.925781 -6.375 15.25 -4.5625 C 13.582031 -2.757812 12.0625 -1.367188 10.6875 -0.390625 C 9.007812 0.859375 7.1875 1.484375 5.21875 1.484375 C 4.832031 1.484375 4.316406 1.3125 3.671875 0.96875 C 2.640625 0.363281 2.125 -0.664062 2.125 -2.125 C 2.125 -3.582031 2.8125 -5.835938 4.1875 -8.890625 C 3.96875 -8.410156 3.128906 -7.335938 1.671875 -5.671875 C 1.285156 -5.234375 0.984375 -5.234375 0.765625 -5.671875 C 0.722656 -5.753906 0.703125 -5.867188 0.703125 -6.015625 C 0.703125 -6.171875 0.789062 -6.351562 0.96875 -6.5625 C 3.070312 -9.1875 4.722656 -11.398438 5.921875 -13.203125 C 5.835938 -13.410156 5.878906 -13.6875 6.046875 -14.03125 C 6.910156 -16.4375 7.660156 -17.703125 8.296875 -17.828125 C 8.429688 -17.828125 8.582031 -17.828125 8.75 -17.828125 C 9.820312 -17.828125 10.46875 -17.484375 10.6875 -16.796875 C 10.769531 -16.410156 10.710938 -16.035156 10.515625 -15.671875 C 10.328125 -15.304688 10.191406 -15.015625 10.109375 -14.796875 C 10.023438 -14.585938 9.957031 -14.421875 9.90625 -14.296875 C 9.695312 -13.859375 9.484375 -13.445312 9.265625 -13.0625 C 6.816406 -8.175781 5.53125 -5.066406 5.40625 -3.734375 C 5.363281 -3.347656 5.34375 -2.851562 5.34375 -2.25 C 5.34375 -1.65625 5.515625 -1.160156 5.859375 -0.765625 C 6.460938 -0.0859375 7.320312 -0.046875 8.4375 -0.640625 C 9.550781 -1.242188 11.101562 -2.445312 13.09375 -4.25 C 15.09375 -6.050781 16.710938 -7.8125 17.953125 -9.53125 C 18.128906 -9.738281 18.320312 -9.789062 18.53125 -9.6875 C 18.75 -9.582031 18.859375 -9.472656 18.859375 -9.359375 C 18.859375 -9.253906 18.816406 -9.140625 18.734375 -9.015625 Z M 18.734375 -9.015625 "/></g></g></g><g fill="#3c210e" fill-opacity="1"><g transform="translate(234.186894, 51.149488)"><g><path d="M 20.53125 -18.28125 C 21.519531 -18.28125 22.015625 -17.753906 22.015625 -16.703125 C 22.015625 -15.648438 21.519531 -14.203125 20.53125 -12.359375 C 19.539062 -10.515625 18.8125 -9.015625 18.34375 -7.859375 C 17.53125 -5.878906 17.125 -4.300781 17.125 -3.125 C 17.125 -1.945312 17.296875 -1.160156 17.640625 -0.765625 C 18.285156 -0.0859375 19.164062 -0.0546875 20.28125 -0.671875 C 21.394531 -1.296875 22.945312 -2.5 24.9375 -4.28125 C 26.9375 -6.0625 28.535156 -7.8125 29.734375 -9.53125 C 29.910156 -9.738281 30.113281 -9.789062 30.34375 -9.6875 C 30.582031 -9.582031 30.703125 -9.472656 30.703125 -9.359375 C 30.703125 -9.253906 30.660156 -9.140625 30.578125 -9.015625 C 29.929688 -7.859375 28.769531 -6.375 27.09375 -4.5625 C 25.425781 -2.757812 23.816406 -1.3125 22.265625 -0.21875 C 20.722656 0.875 19.203125 1.421875 17.703125 1.421875 C 16.242188 1.378906 15.210938 1.046875 14.609375 0.421875 C 14.003906 -0.203125 13.703125 -0.984375 13.703125 -1.921875 C 13.703125 -2.867188 13.785156 -3.78125 13.953125 -4.65625 C 14.128906 -5.539062 14.457031 -6.5625 14.9375 -7.71875 C 15.707031 -9.570312 16.378906 -11.007812 16.953125 -12.03125 C 17.535156 -13.0625 17.828125 -13.738281 17.828125 -14.0625 C 17.828125 -14.382812 17.65625 -14.546875 17.3125 -14.546875 C 16.625 -14.546875 15.316406 -13.707031 13.390625 -12.03125 C 12.054688 -10.789062 10.09375 -8.441406 7.5 -4.984375 C 4.90625 -1.535156 3.4375 0.296875 3.09375 0.515625 C 1.539062 1.285156 0.570312 1.671875 0.1875 1.671875 C -0.195312 1.671875 -0.390625 1.601562 -0.390625 1.46875 C -0.390625 1.34375 -0.34375 1.160156 -0.25 0.921875 C -0.164062 0.691406 0.25 -0.472656 1 -2.578125 C 1.75 -4.679688 2.5625 -6.988281 3.4375 -9.5 C 4.320312 -12.007812 4.859375 -13.519531 5.046875 -14.03125 C 5.242188 -14.550781 5.375 -14.992188 5.4375 -15.359375 C 5.5 -15.722656 5.570312 -16.03125 5.65625 -16.28125 C 5.75 -16.539062 5.910156 -16.832031 6.140625 -17.15625 C 6.378906 -17.476562 6.691406 -17.648438 7.078125 -17.671875 C 7.460938 -17.691406 7.957031 -17.644531 8.5625 -17.53125 C 9.164062 -17.425781 9.46875 -17.160156 9.46875 -16.734375 C 9.46875 -16.429688 9.226562 -15.773438 8.75 -14.765625 C 8.28125 -13.765625 6.929688 -10.300781 4.703125 -4.375 C 6.242188 -6.257812 8.191406 -8.4375 10.546875 -10.90625 C 12.910156 -13.375 14.910156 -15.253906 16.546875 -16.546875 C 18.171875 -17.703125 19.5 -18.28125 20.53125 -18.28125 Z M 20.53125 -18.28125 "/></g></g></g></g></g></svg>